<svg width="402" height="42" viewBox="0 0 402 42" fill="none" xmlns="http://www.w3.org/2000/svg">
<path fill-rule="evenodd" clip-rule="evenodd" d="M21 41C32.0457 41 41 32.0457 41 21C41 9.9543 32.0457 1 21 1C9.9543 1 1 9.9543 1 21C1 32.0457 9.9543 41 21 41Z" stroke="#5E5E5E"/>
<path fill-rule="evenodd" clip-rule="evenodd" d="M26.01 17.8306H22.9426V15.9618C22.9426 15.2604 23.4429 15.0964 23.795 15.0964H25.96V12.011L22.9787 12C19.6672 12 18.9138 14.302 18.9138 15.7747V17.8306H17V21.011H18.9138V30.008H22.9426V21.011H25.6578L26.01 17.8306Z" fill="#9A9A9A"/>
<path fill-rule="evenodd" clip-rule="evenodd" d="M81 41C92.0457 41 101 32.0457 101 21C101 9.9543 92.0457 1 81 1C69.9543 1 61 9.9543 61 21C61 32.0457 69.9543 41 81 41Z" stroke="#5E5E5E"/>
<path fill-rule="evenodd" clip-rule="evenodd" d="M141 41C152.046 41 161 32.0457 161 21C161 9.9543 152.046 1 141 1C129.954 1 121 9.9543 121 21C121 32.0457 129.954 41 141 41Z" stroke="#5E5E5E"/>
<path fill-rule="evenodd" clip-rule="evenodd" d="M87.9084 17.1689C88.6244 16.7403 89.1742 16.0617 89.4332 15.2532C88.7631 15.6498 88.021 15.938 87.2315 16.0934C86.599 15.4203 85.6976 15 84.7007 15C82.7858 15 81.2334 16.5502 81.2334 18.4626C81.2334 18.7339 81.2639 18.9983 81.3231 19.2517C78.4416 19.1075 75.886 17.7288 74.1766 15.6337C73.8781 16.1452 73.7069 16.7399 73.7069 17.3745C73.7069 18.5758 74.3189 19.6355 75.2492 20.2567C74.6812 20.2387 74.1463 20.0833 73.6788 19.8239C73.6784 19.8382 73.6784 19.8525 73.6784 19.8672C73.6784 21.5451 74.8739 22.9445 76.4597 23.2626C76.1691 23.3419 75.8627 23.3843 75.5462 23.3843C75.323 23.3843 75.1061 23.3626 74.8939 23.3221C75.3351 24.6977 76.616 25.699 78.133 25.7267C76.9461 26.6555 75.4514 27.2092 73.827 27.2092C73.5472 27.2092 73.2713 27.1927 73 27.1602C74.5342 28.143 76.3563 28.7165 78.315 28.7165C84.6924 28.7165 88.1801 23.4397 88.1801 18.8637C88.1801 18.714 88.1768 18.5644 88.17 18.4156C88.8472 17.928 89.4349 17.3182 89.9 16.6234C89.2778 16.899 88.6099 17.085 87.9084 17.1689Z" fill="#9A9A9A"/>
<path fill-rule="evenodd" clip-rule="evenodd" d="M145.515 15.1582C144.917 15.1582 144.432 15.6426 144.432 16.2415C144.432 16.8395 144.917 17.3247 145.515 17.3247C146.113 17.3247 146.598 16.8395 146.598 16.2415C146.598 15.6426 146.113 15.1582 145.515 15.1582ZM141 23.9783C139.359 23.9783 138.023 22.6422 138.023 20.9993C138.023 19.3572 139.359 18.022 141 18.022C142.642 18.022 143.978 19.3572 143.978 20.9993C143.978 22.6422 142.642 23.9783 141 23.9783ZM141 16.3452C138.435 16.3452 136.348 18.4332 136.348 20.999C136.348 23.5656 138.435 25.6535 141 25.6535C143.566 25.6535 145.653 23.5656 145.653 20.999C145.653 18.4332 143.566 16.3452 141 16.3452ZM148.304 23.5421C148.296 24.1026 148.274 24.7006 148.169 25.2668C147.882 26.8074 147.008 27.7442 145.496 28.1312C144.801 28.3088 144.061 28.3145 143.279 28.3194H143.271C142.891 28.3219 142.5 28.3227 142.078 28.3227C141.016 28.3227 139.935 28.3153 138.887 28.3071L138.185 28.3022C137.667 28.2981 137.06 28.2744 136.475 28.1255C135.329 27.8342 134.55 27.1928 134.092 26.1643C133.802 25.5106 133.737 24.7882 133.712 24.1672C133.706 24.033 133.696 23.9062 133.685 23.7835L133.676 23.6607V18.3991C133.686 18.3459 133.699 18.2714 133.702 18.1855C133.72 17.5695 133.745 17.0164 133.878 16.4878C134.171 15.3211 134.826 14.5324 135.88 14.0767C136.52 13.7993 137.229 13.7371 137.838 13.7118C137.972 13.7061 138.099 13.6954 138.222 13.6856L138.344 13.6758H143.609C143.652 13.6848 143.707 13.693 143.77 13.6987C143.949 13.7142 144.125 13.7249 144.295 13.7347C144.634 13.7551 144.953 13.774 145.249 13.8288C146.023 13.9744 146.654 14.269 147.124 14.7034C147.595 15.1411 147.933 15.7482 148.128 16.5091C148.302 17.1906 148.309 17.918 148.316 18.6863V18.7525C148.331 20.3619 148.327 21.9737 148.304 23.5421ZM149.992 18.7376L149.991 18.6714C149.983 17.836 149.975 16.972 149.751 16.0933C149.202 13.9456 147.751 12.5932 145.557 12.1825C145.158 12.1072 144.77 12.0843 144.394 12.0622C144.232 12.0532 144.079 12.0434 143.927 12.0303C143.919 12.0286 143.912 12.027 143.904 12.0254C143.881 12.0221 143.859 12.0172 143.836 12.0131L143.764 12H138.281L138.251 12.0025C138.195 12.0065 138.139 12.0106 138.084 12.0155C137.973 12.0245 137.868 12.0335 137.77 12.0376C137.051 12.0671 136.112 12.1505 135.215 12.5384C133.672 13.206 132.676 14.3972 132.254 16.0786C132.083 16.756 132.049 17.4187 132.029 18.0929C132.023 18.1183 132.018 18.1428 132.013 18.1674L132 18.2402V23.7236L132.002 23.7538C132.007 23.8103 132.011 23.8659 132.016 23.9216C132.025 24.032 132.034 24.1359 132.038 24.2349C132.067 24.9688 132.155 25.9277 132.562 26.8449C133.232 28.352 134.41 29.3297 136.062 29.7486C136.826 29.9433 137.591 29.9728 138.171 29.9777L138.875 29.9826C139.925 29.9899 141.01 29.9989 142.078 29.9989C142.504 29.9989 142.898 29.9973 143.282 29.9949H143.29C144.139 29.9891 145.018 29.9834 145.911 29.7543C148.058 29.2045 149.409 27.7588 149.816 25.5735C149.944 24.8813 149.97 24.1703 149.979 23.5657C150.001 21.9841 150.006 20.3601 149.992 18.7376Z" fill="#9A9A9A"/>
<path fill-rule="evenodd" clip-rule="evenodd" d="M201 41C212.046 41 221 32.0457 221 21C221 9.9543 212.046 1 201 1C189.954 1 181 9.9543 181 21C181 32.0457 189.954 41 201 41Z" stroke="#5E5E5E"/>
<path fill-rule="evenodd" clip-rule="evenodd" d="M321 41C332.046 41 341 32.0457 341 21C341 9.9543 332.046 1 321 1C309.954 1 301 9.9543 301 21C301 32.0457 309.954 41 321 41Z" stroke="#5E5E5E"/>
<path fill-rule="evenodd" clip-rule="evenodd" d="M261 41C272.046 41 281 32.0457 281 21C281 9.9543 272.046 1 261 1C249.954 1 241 9.9543 241 21C241 32.0457 249.954 41 261 41Z" stroke="#5E5E5E"/>
<path fill-rule="evenodd" clip-rule="evenodd" d="M381 41C392.046 41 401 32.0457 401 21C401 9.9543 392.046 1 381 1C369.954 1 361 9.9543 361 21C361 32.0457 369.954 41 381 41Z" stroke="#5E5E5E"/>
<path fill-rule="evenodd" clip-rule="evenodd" d="M385.997 25.9251V25.8105C385.935 25.8481 385.892 25.8746 385.849 25.902C385.257 26.2638 384.622 26.5204 383.92 26.5879C383.343 26.6461 382.789 26.5811 382.284 26.2706C381.941 26.0585 381.73 25.7583 381.685 25.3606C381.648 25.0253 381.615 24.6943 381.612 24.359C381.601 22.8272 381.606 21.2963 381.603 19.7653C381.603 19.7302 381.609 19.6995 381.617 19.6575H385.452V17.1045H381.598V13H379.301C379.279 13.1317 379.264 13.2583 379.242 13.3823C379.221 13.5089 379.194 13.6321 379.169 13.7561C378.802 15.5051 377.8 16.7102 376.098 17.3089C376.019 17.338 376 17.3774 376 17.4569C376.003 18.1471 376.003 18.8373 376.003 19.5258C376.003 19.5677 376.006 19.6079 376.009 19.6593H377.784V19.844C377.784 21.6521 377.782 23.4601 377.784 25.2657C377.784 25.5744 377.803 25.8823 377.823 26.1911C377.877 26.8548 378.113 27.4372 378.592 27.9136C378.86 28.1847 379.155 28.4148 379.485 28.5996C380.243 29.0272 381.068 29.1957 381.928 29.2367C383.325 29.306 384.643 29.0092 385.9 28.4063C385.977 28.3695 386 28.3284 386 28.2472C385.993 27.4723 385.997 26.6965 385.997 25.9251Z" fill="#9A9A9A"/>
<path fill-rule="evenodd" clip-rule="evenodd" d="M328.578 19.1821C326.016 17.6833 322.511 17 319.18 17C317.216 17 315.412 17.2217 313.795 17.6966C313.383 17.8165 313 18.1629 313 18.7767C313 19.381 313.464 19.8568 314.069 19.8568C314.279 19.8568 314.487 19.7759 314.653 19.7331C316.083 19.3458 317.645 19.1907 319.185 19.1907C322.266 19.1907 325.453 19.8673 327.506 21.092C327.723 21.2119 327.861 21.2681 328.092 21.2681C328.665 21.2681 329.161 20.8256 329.161 20.2089C329.161 19.6703 328.921 19.3772 328.578 19.1821ZM325.704 26.282C323.799 25.1457 321.587 24.5767 319.104 24.5767C317.655 24.5767 316.258 24.7594 314.857 25.0782C314.515 25.1419 314.24 25.3798 314.24 25.8537C314.24 26.2239 314.53 26.5656 314.958 26.5656C315.098 26.5656 315.332 26.4932 315.518 26.4523C316.66 26.2163 317.882 26.0612 319.096 26.0612C321.272 26.0612 323.322 26.5817 324.966 27.5733C325.139 27.678 325.264 27.7418 325.447 27.7418C325.82 27.7418 326.152 27.442 326.152 27.0357C326.152 26.617 325.987 26.4476 325.704 26.282ZM327.05 22.9689C324.79 21.6233 321.919 20.8857 318.949 20.8857C317.053 20.8857 315.75 21.1551 314.474 21.5043C314.003 21.6366 313.77 21.9677 313.77 22.4474C313.77 22.9375 314.168 23.3352 314.656 23.3352C314.862 23.3352 314.986 23.2686 315.208 23.2087C316.235 22.9365 317.475 22.7367 318.91 22.7367C321.711 22.7367 324.27 23.4618 326.115 24.5514C326.283 24.6494 326.437 24.7484 326.683 24.7484C327.177 24.7484 327.567 24.3535 327.567 23.8634C327.567 23.4618 327.428 23.1858 327.05 22.9689Z" fill="#9A9A9A"/>
<path fill-rule="evenodd" clip-rule="evenodd" d="M270.059 20.2601V18.29H268.266V20.2601H266.325V22.0799H268.266V24.0491H270.059V22.0799H272V20.2601H270.059ZM264.095 20.2601H257.881V22.1316H262.288C262.07 24.7553 259.918 25.8769 257.887 25.8769C255.289 25.8769 253.021 23.8018 253.021 20.8912C253.021 18.0581 255.183 15.8771 257.893 15.8771C259.984 15.8771 261.216 17.2306 261.216 17.2306L262.508 15.8715C262.508 15.8715 260.85 14 257.827 14C253.979 14 251 17.2977 251 20.858C251 24.3497 253.802 27.7517 257.925 27.7517C261.553 27.7517 264.207 25.2297 264.207 21.5013C264.207 20.7142 264.095 20.2593 264.095 20.2593V20.2601Z" fill="#9A9A9A"/>
<path fill-rule="evenodd" clip-rule="evenodd" d="M197.089 22.4183C197.321 22.5152 197.531 22.4226 197.599 22.1594C197.646 21.9785 197.757 21.5199 197.808 21.3287C197.876 21.069 197.85 20.979 197.66 20.7535C197.249 20.2597 196.988 19.6236 196.988 18.7227C196.988 16.1071 198.916 13.7651 202.007 13.7651C204.746 13.7651 206.25 15.4633 206.25 17.7317C206.25 20.7166 204.949 23.2353 203.018 23.2353C201.951 23.2353 201.153 22.3386 201.408 21.2413C201.715 19.9305 202.308 18.5152 202.308 17.5688C202.308 16.7218 201.86 16.0146 200.933 16.0146C199.843 16.0146 198.967 17.159 198.967 18.6935C198.967 19.6699 199.292 20.3309 199.292 20.3309C199.292 20.3309 198.177 25.1307 197.981 25.9717C197.592 27.645 197.922 29.6965 197.95 29.9039C197.967 30.0265 198.122 30.0557 198.192 29.9631C198.293 29.8302 199.592 28.2023 200.033 26.5769C200.158 26.1157 200.751 23.7316 200.751 23.7316C201.105 24.4174 202.14 25.0201 203.241 25.0201C206.519 25.0201 208.743 21.9888 208.743 17.9288C208.743 14.8581 206.18 12 202.288 12C197.443 12 195 15.5251 195 18.4646C195 20.2451 195.665 21.8294 197.089 22.4183Z" fill="#9A9A9A"/>
</svg>
